<?xml version="1.0" encoding="UTF-8"?><svg id="_圖層_2" xmlns="http://www.w3.org/2000/svg" viewBox="0 0 209.34 51.28"><defs><style>.cls-1{fill:#28466e;}</style></defs><g id="_圖層_1-2"><g><g><path class="cls-1" d="M35.61,29.63c.19,.25,.36,.48,.53,.7,.54,.72,1.07,1.44,1.61,2.16,.3-1.07,.52-2.16,.65-3.28-.92,.14-1.85,.28-2.79,.42Z"/><path class="cls-1" d="M38.53,26.9v-3.99c-.98,1.3-1.95,2.6-2.97,3.94,1,.15,1.98,.29,2.96,.43,0-.13,0-.26,0-.39Z"/><path class="cls-1" d="M41.88,6.39c-.15,.11-.3,.23-.45,.34-.15,.12-.3,.23-.45,.35-.35,.26-.69,.53-1.04,.79-1.58,1.21-3.17,2.42-4.75,3.63-.35,.26-.69,.53-1.04,.79-.31,.24-.62,.47-.93,.71-.35,.27-.71,.54-1.06,.81-.3-.07-.57-.17-.81-.31-1.04-.61-1.54-1.88-1.9-2.97-.69-2.12-1-4.37-1.85-6.44-.85-2.07-2.44-3.45-4.65-3.9-2.43-.5-5.03,0-7.36,.77-2.16,.72-4.95,1.87-6.06,4.01-.08,.16-.06,.35,.06,.48,.61,.67,1.52,.87,2.34,1.19,.91,.35,1.81,.7,2.72,1.05-.91,1.68-1.71,3.42-2.75,5.03-.32,.5-.67,1.07-1.13,1.48-.52-.4-1.05-.8-1.57-1.2-.31-.24-.62-.47-.93-.71-.35-.26-.69-.53-1.04-.79-1.36-1.04-2.72-2.08-4.08-3.12-.22-.17-.44-.34-.66-.51-.35-.26-.69-.53-1.04-.79-.15-.12-.3-.23-.45-.35-.15-.11-.3-.23-.45-.34-.41-.31-.8,.38-.4,.69,.16,.13,.33,.25,.49,.38v28.11l5,2.25c.39,.65,.81,1.28,1.27,1.89,1.99,2.64,4.56,4.5,7.19,6.41,2.34,1.7,4.69,3.4,7.03,5.1,.1,.08,.3,.08,.4,0,2.04-1.47,4.07-2.94,6.11-4.41,2.55-1.84,5.13-3.58,7.16-6.02,.72-.86,1.36-1.77,1.93-2.72l5.02-2.23V7.45c.16-.13,.33-.25,.49-.38,.4-.31,0-1-.4-.69ZM11.76,14.32c1.6-2,2.59-4.4,3.82-6.63,.13-.24,0-.49-.24-.58-.87-.33-1.73-.67-2.6-1-.73-.28-1.72-.5-2.35-1.01,1.12-1.8,3.63-2.79,5.53-3.41,2.41-.79,5.21-1.32,7.69-.5,2.29,.76,3.25,2.79,3.84,4.96,.57,2.11,.91,4.44,1.98,6.37,.45,.82,1.1,1.53,1.96,1.88-2.59,1.98-5.18,3.96-7.77,5.93-.8,.61-1.6,1.22-2.4,1.84-3.27-2.5-6.53-4.99-9.8-7.49,.11-.11,.23-.23,.33-.37ZM1.45,35.05V8.06c1.5,1.15,3,2.29,4.5,3.44H2.88c-.12,0-.2,.04-.27,.11,0,0,0,0-.01,.01,0,0,0,0,0,0-.06,.06-.11,.15-.11,.27,0,4.81-.01,9.62,0,14.44,0,3.59,.87,7.14,2.52,10.31l-3.54-1.6Zm34.77,2.39c-.24,.41-.5,.81-.77,1.21-.03,.04-.06,.09-.09,.13-1.96,2.83-4.59,4.81-7.34,6.79-2.23,1.61-4.45,3.21-6.68,4.82-1.88-1.36-3.76-2.72-5.64-4.09-2.37-1.72-4.87-3.34-6.86-5.51-.69-.75-1.31-1.55-1.88-2.38-.27-.4-.53-.8-.77-1.22-1.9-3.25-2.92-6.98-2.94-10.78-.01-2.21,0-4.42,0-6.63v-7.49h3.72c.31,.24,.62,.47,.93,.71H3.92v13.69c0,3.9,1.11,7.66,3.13,10.87,.27,.43,.56,.85,.86,1.26,1.24,1.68,2.73,3.18,4.46,4.43l8.98,6.51,8.68-6.26c1.74-1.25,3.24-2.76,4.49-4.44,.3-.41,.59-.82,.85-1.25,.91-1.45,1.64-3,2.16-4.63-.4-.3-.8-.6-1.19-.9-.59-.44-1.18-.88-1.77-1.33-.04-.03-.09-.06-.18-.11-.4,2.66-.79,5.29-1.18,7.93-.03,.23-.07,.47-.1,.7h-.21c-.03-.18-.05-.35-.08-.53-.4-2.69-.8-5.37-1.21-8.09-1.47,1.1-2.9,2.17-4.34,3.25-.03-.01-.05-.03-.08-.04,.01-.07,0-.17,.04-.22,.42-.56,.85-1.1,1.27-1.66,.62-.82,1.24-1.65,1.9-2.52-.26-.05-.49-.1-.73-.13-1.22-.19-2.45-.37-3.68-.55-.98-.14-1.95-.28-2.93-.42-.4-.06-.8-.12-1.2-.19-.05,0-.08-.06-.12-.1,.04-.04,.07-.1,.12-.11,.27-.05,.54-.09,.81-.13,.88-.13,1.76-.26,2.63-.39,1.23-.18,2.47-.36,3.7-.54,.45-.07,.89-.15,1.38-.23-.25-.33-.47-.63-.69-.92-.8-1.07-1.6-2.13-2.4-3.2-.03-.04-.07-.07-.07-.12-.01-.06,0-.12,0-.18,.05,0,.12,0,.16,.03,.42,.32,.83,.66,1.25,.97,.92,.69,1.84,1.38,2.76,2.07,.05,.04,.11,.07,.21,.12,.08-.6,.15-1.17,.24-1.73,.21-1.46,.43-2.92,.65-4.38,.12-.79,.25-1.57,.37-2.36,.02-.14,.07-.22,.22-.17,.43,2.86,.87,5.72,1.3,8.62,.33-.25,.64-.49,.96-.73,1.06-.8,2.12-1.6,3.18-2.39V13.01h-4.01c.31-.24,.62-.47,.93-.71h3.72c0,4.68,0,9.37,0,14.05,0,.35-.01,.69-.03,1.04-.03,.58-.07,1.16-.14,1.74-.16,1.34-.44,2.65-.84,3.93-.05,.16-.1,.33-.16,.49-.46,1.35-1.05,2.66-1.78,3.9Zm4.77-9.79v7.67l-3.58,1.59c.49-.94,.91-1.9,1.26-2.9,.02-.05,.04-.1,.06-.15,.54-1.57,.91-3.2,1.1-4.87,.06-.5,.09-1,.12-1.5,.01-.29,.02-.58,.02-.87,.01-2.25,0-4.49,0-6.74v-8c0-.21-.18-.4-.4-.4h-3.08l3.19-2.44c.44-.33,.88-.67,1.32-1V27.65Z"/></g><g><g><g><path d="M62.57,6.73l-1.84-3.82h1.03l.71,1.63c.19,.46,.37,.88,.58,1.35h.03c.2-.47,.4-.89,.58-1.35l.72-1.63h1.01l-1.85,3.82v2.33h-.97v-2.33Z"/><path d="M66.04,6.42V2.91h.97v3.58c0,1.38,.55,1.83,1.32,1.83s1.34-.45,1.34-1.83V2.91h.93v3.51c0,2-.92,2.74-2.28,2.74s-2.28-.74-2.28-2.74Z"/><path d="M73.27,2.91h1.12l2.03,6.14h-1.03l-.52-1.75h-2.13l-.53,1.75h-.98l2.03-6.14Zm-.3,3.63h1.68l-.24-.83c-.21-.67-.39-1.35-.58-2.04h-.04c-.18,.7-.37,1.38-.57,2.04l-.25,.83Z"/><path d="M77.23,2.91h.99l2.03,3.61,.64,1.3h.04c-.05-.63-.13-1.38-.13-2.04V2.91h.92v6.14h-.99l-2.03-3.62-.64-1.28h-.04c.05,.63,.12,1.34,.12,2.01v2.89h-.92V2.91Z"/><path d="M84.8,8.47l3.08-4.74h-2.79v-.82h3.98v.58l-3.07,4.74h3.1v.82h-4.3v-.58Z"/><path d="M90.28,2.91h3.63v.82h-2.66v1.71h2.25v.82h-2.25v1.98h2.75v.82h-3.72V2.91Z"/><path d="M97.12,6.42V2.91h.97v3.58c0,1.38,.55,1.83,1.32,1.83s1.34-.45,1.34-1.83V2.91h.93v3.51c0,2-.92,2.74-2.28,2.74s-2.28-.74-2.28-2.74Z"/><path d="M103.26,2.91h.99l2.03,3.61,.64,1.3h.04c-.05-.63-.13-1.38-.13-2.04V2.91h.92v6.14h-.99l-2.03-3.62-.64-1.28h-.04c.05,.63,.12,1.34,.12,2.01v2.89h-.92V2.91Z"/><path d="M109.38,2.91h.97v6.14h-.97V2.91Z"/><path d="M111.13,2.91h1.03l.91,3.18c.21,.7,.35,1.3,.56,2.01h.04c.22-.71,.36-1.31,.56-2.01l.91-3.18h.98l-1.92,6.14h-1.14l-1.93-6.14Z"/><path d="M116.91,2.91h3.63v.82h-2.66v1.71h2.25v.82h-2.25v1.98h2.75v.82h-3.72V2.91Z"/><path d="M121.91,2.91h2.01c1.27,0,2.22,.46,2.22,1.78,0,.95-.51,1.52-1.28,1.76l1.5,2.6h-1.09l-1.39-2.48h-.99v2.48h-.97V2.91Zm1.89,2.89c.89,0,1.38-.37,1.38-1.11s-.48-1-1.38-1h-.93v2.11h.93Z"/><path d="M126.82,8.27l.57-.67c.44,.44,1.04,.72,1.63,.72,.74,0,1.16-.35,1.16-.87,0-.56-.42-.73-.98-.98l-.85-.37c-.59-.25-1.25-.72-1.25-1.61,0-.97,.85-1.69,2.02-1.69,.72,0,1.39,.3,1.86,.77l-.51,.62c-.38-.34-.81-.55-1.35-.55-.63,0-1.03,.3-1.03,.78,0,.53,.49,.73,.99,.93l.84,.36c.73,.31,1.25,.76,1.25,1.66,0,.98-.82,1.78-2.16,1.78-.84,0-1.63-.33-2.18-.9Z"/><path d="M132.32,2.91h.97v6.14h-.97V2.91Z"/><path d="M136.15,3.73h-1.8v-.82h4.58v.82h-1.81v5.33h-.97V3.73Z"/><path d="M140.85,6.73l-1.84-3.82h1.03l.71,1.63c.19,.46,.37,.88,.58,1.35h.03c.2-.47,.4-.89,.58-1.35l.72-1.63h1.01l-1.85,3.82v2.33h-.97v-2.33Z"/></g><g><path d="M60.09,24.26l.9-1.06c.7,.7,1.65,1.15,2.59,1.15,1.18,0,1.84-.55,1.84-1.37,0-.89-.66-1.16-1.56-1.56l-1.35-.58c-.94-.4-1.98-1.14-1.98-2.55,0-1.53,1.35-2.68,3.2-2.68,1.14,0,2.21,.48,2.95,1.23l-.81,.98c-.61-.54-1.28-.87-2.14-.87-.99,0-1.64,.48-1.64,1.24,0,.85,.78,1.16,1.57,1.48l1.34,.57c1.15,.49,1.98,1.2,1.98,2.63,0,1.56-1.3,2.83-3.42,2.83-1.34,0-2.58-.53-3.46-1.43Z"/><path d="M70.51,17.07h-2.86v-1.3h7.26v1.3h-2.87v8.45h-1.53v-8.45Z"/><path d="M76.53,21.34v-5.57h1.53v5.67c0,2.19,.87,2.91,2.09,2.91s2.13-.71,2.13-2.91v-5.67h1.48v5.57c0,3.17-1.45,4.35-3.61,4.35s-3.62-1.18-3.62-4.35Z"/><path d="M86.27,15.78h2.52c2.99,0,4.69,1.67,4.69,4.84s-1.71,4.9-4.61,4.9h-2.6V15.78Zm2.42,8.49c2.09,0,3.21-1.23,3.21-3.65s-1.12-3.58-3.21-3.58h-.89v7.23h.89Z"/><path d="M95.51,15.78h5.75v1.3h-4.22v2.71h3.57v1.3h-3.57v3.15h4.36v1.3h-5.9V15.78Z"/><path d="M103.44,15.78h1.57l3.23,5.72,1.02,2.06h.07c-.08-1-.2-2.18-.2-3.24v-4.55h1.45v9.74h-1.57l-3.23-5.74-1.02-2.04h-.07c.08,1,.2,2.13,.2,3.19v4.59h-1.45V15.78Z"/><path d="M115.13,17.07h-2.86v-1.3h7.26v1.3h-2.87v8.45h-1.53v-8.45Z"/><path d="M126.13,15.78h1.77l3.23,9.74h-1.63l-.82-2.78h-3.38l-.83,2.78h-1.56l3.23-9.74Zm-.48,5.76h2.66l-.38-1.31c-.33-1.06-.62-2.14-.91-3.24h-.07c-.28,1.11-.58,2.18-.9,3.24l-.4,1.31Z"/><path d="M131.72,24.26l.9-1.06c.7,.7,1.65,1.15,2.59,1.15,1.18,0,1.84-.55,1.84-1.37,0-.89-.66-1.16-1.56-1.56l-1.35-.58c-.94-.4-1.98-1.14-1.98-2.55,0-1.53,1.35-2.68,3.2-2.68,1.14,0,2.21,.48,2.95,1.23l-.81,.98c-.61-.54-1.28-.87-2.14-.87-.99,0-1.64,.48-1.64,1.24,0,.85,.78,1.16,1.57,1.48l1.34,.57c1.15,.49,1.98,1.2,1.98,2.63,0,1.56-1.3,2.83-3.42,2.83-1.34,0-2.58-.53-3.46-1.43Z"/><path d="M139.53,24.26l.9-1.06c.7,.7,1.65,1.15,2.59,1.15,1.18,0,1.84-.55,1.84-1.37,0-.89-.66-1.16-1.56-1.56l-1.35-.58c-.94-.4-1.98-1.14-1.98-2.55,0-1.53,1.35-2.68,3.2-2.68,1.14,0,2.21,.48,2.95,1.23l-.81,.98c-.61-.54-1.28-.87-2.14-.87-.99,0-1.64,.48-1.64,1.24,0,.85,.78,1.16,1.57,1.48l1.34,.57c1.15,.49,1.98,1.2,1.98,2.63,0,1.56-1.3,2.83-3.42,2.83-1.34,0-2.58-.53-3.46-1.43Z"/><path d="M147.73,20.61c0-3.13,1.73-5.01,4.23-5.01s4.24,1.88,4.24,5.01-1.75,5.08-4.24,5.08-4.23-1.94-4.23-5.08Zm6.9,0c0-2.29-1.06-3.68-2.67-3.68s-2.66,1.39-2.66,3.68,1.04,3.74,2.66,3.74,2.67-1.47,2.67-3.74Z"/><path d="M157.69,20.68c0-3.17,1.93-5.08,4.39-5.08,1.22,0,2.17,.58,2.76,1.23l-.83,.98c-.5-.52-1.11-.87-1.9-.87-1.68,0-2.84,1.4-2.84,3.69s1.08,3.73,2.8,3.73c.9,0,1.57-.4,2.15-1.03l.82,.96c-.78,.9-1.77,1.4-3.03,1.4-2.45,0-4.32-1.82-4.32-5.01Z"/><path d="M166.76,15.78h1.53v9.74h-1.53V15.78Z"/><path d="M172.79,15.78h1.77l3.23,9.74h-1.63l-.82-2.78h-3.38l-.83,2.78h-1.56l3.23-9.74Zm-.48,5.76h2.66l-.38-1.31c-.33-1.06-.62-2.14-.91-3.24h-.07c-.28,1.11-.58,2.18-.9,3.24l-.4,1.31Z"/><path d="M180.15,17.07h-2.86v-1.3h7.26v1.3h-2.87v8.45h-1.53v-8.45Z"/><path d="M186.23,15.78h1.53v9.74h-1.53V15.78Z"/><path d="M189.79,20.61c0-3.13,1.73-5.01,4.23-5.01s4.24,1.88,4.24,5.01-1.75,5.08-4.24,5.08-4.23-1.94-4.23-5.08Zm6.9,0c0-2.29-1.06-3.68-2.67-3.68s-2.66,1.39-2.66,3.68,1.04,3.74,2.66,3.74,2.67-1.47,2.67-3.74Z"/><path d="M200.28,15.78h1.57l3.23,5.72,1.02,2.06h.07c-.08-1-.2-2.18-.2-3.24v-4.55h1.45v9.74h-1.57l-3.23-5.74-1.02-2.04h-.07c.08,1,.2,2.13,.2,3.19v4.59h-1.45V15.78Z"/></g></g><g><path d="M72.1,46.62c.66,0,.77-.47,.84-3.12,.39,.3,1.11,.59,1.56,.72-.18,3.1-.61,3.98-2.27,3.98h-2.38c-1.77,0-2.24-.56-2.24-2.31v-5.98h-3.06c-.32,3.78-1.13,6.88-5.34,8.56-.18-.43-.66-1.02-1.04-1.34,3.74-1.4,4.35-4.06,4.6-7.22h-4.32v-1.61h15.74v1.61h-4.87v5.96c0,.64,.11,.75,.75,.75h2.02Zm.54-11.62h-12.61v-1.61h12.61v1.61Z"/><path d="M88.11,40.7c-.52-.43-1.68-1.27-2.54-1.86-.63,.97-1.68,1.92-3.44,2.7-.21-.32-.68-.84-1.06-1.11,2.08-.81,3.01-1.84,3.42-2.85h-3.24v-1.32h1.22c-.32-.21-.93-.61-1.27-.75,.9-.9,1.59-2.2,1.97-3.53l1.49,.3c-.13,.41-.27,.79-.41,1.18h4.64v1.33h-2.47v.93c0,.18,0,.36-.02,.54h2.94v1.32h-3.19l-.05,.16c.73,.36,2.7,1.52,3.19,1.86l-1.16,1.09Zm-3.29-4.44c.02-.2,.02-.38,.02-.56v-.91h-1.25c-.3,.57-.66,1.06-1.04,1.47h2.27Zm-1.07,4.83h11.23v7.36h-1.7v-.61h-7.88v.63h-1.65v-7.38Zm1.65,1.32v1.4h7.88v-1.4h-7.88Zm7.88,4.08v-1.43h-7.88v1.43h7.88Zm3.21-13.05v6.39h-6.46v-6.39h6.46Zm-1.65,1.47h-3.26v3.46h3.26v-3.46Z"/><path d="M112.52,38.75c1.22,3.72,3.47,6.75,6.86,8.17-.41,.36-.97,1.06-1.24,1.56-3.35-1.56-5.52-4.46-6.91-8.26-.91,3.24-2.85,6.34-6.91,8.26-.27-.45-.81-1.04-1.27-1.4,4.26-1.86,6-5.09,6.72-8.33h-6.36v-1.72h6.66c.21-1.79,.2-3.51,.21-4.94h1.81c-.02,1.45-.04,3.17-.25,4.94h7.22v1.72h-6.54Z"/><path d="M141.62,45.12h-6.97v1.72c0,.79-.18,1.18-.81,1.4-.64,.23-1.56,.23-2.95,.23-.09-.43-.32-1.02-.54-1.41,.98,.04,2.02,.04,2.29,.04,.29,0,.38-.07,.38-.3v-1.67h-7.34v-1.36h7.34v-.64c.79-.32,1.67-.75,2.42-1.22h-6.41v-1.22h8.11l.36-.09,.95,.86c-1.04,.81-2.44,1.58-3.8,2.17v.14h6.97v1.36Zm-14-3.28h-1.58v-3.42h1.36l-.32-5.3c1.04-.18,2.58-.63,3.51-.91l.72,.98c-.77,.29-1.74,.54-2.63,.7l.05,.72h2.45v1.07h-2.4l.05,.82h2.42v1.06c.5-.23,1.04-.52,1.5-.84-.38-.23-.79-.47-1.16-.64l.81-.7c.39,.2,.84,.43,1.25,.68,.32-.29,.59-.57,.81-.88l1.13,.36c-.29,.38-.61,.73-.98,1.09,.48,.32,.88,.63,1.18,.91l-.84,.77c-.29-.29-.7-.61-1.2-.95-.52,.41-1.09,.75-1.61,1.06h6.25c.02-.27,.05-.54,.09-.82h-2.38v-1.09h2.45l.07-.82h-2.44v-1.07h2.51l.04-.81h-2.63v-1.09h4.26c-.09,1.81-.25,4.1-.39,5.71h1.36v3.42h-1.65v-2.17h-12.05v2.17Zm1.34-3.42h3.06c-.18-.23-.59-.64-.84-.82h-2.26l.04,.82Zm5.93-3.29c-.27-.27-.66-.56-1.11-.84-.5,.38-1.04,.73-1.54,.98-.2-.18-.63-.59-.91-.77,.5-.21,1.02-.5,1.47-.82-.36-.21-.75-.43-1.13-.59l.81-.7c.38,.18,.81,.39,1.2,.63,.3-.25,.55-.54,.75-.79l1.13,.3c-.27,.36-.57,.72-.93,1.06,.43,.27,.81,.54,1.09,.79l-.82,.75Z"/><path d="M164.07,45.12h-6.97v1.72c0,.79-.18,1.18-.81,1.4-.64,.23-1.56,.23-2.95,.23-.09-.43-.32-1.02-.54-1.41,.98,.04,2.02,.04,2.29,.04,.29,0,.38-.07,.38-.3v-1.67h-7.34v-1.36h7.34v-.64c.79-.32,1.67-.75,2.42-1.22h-6.41v-1.22h8.11l.36-.09,.95,.86c-1.04,.81-2.44,1.58-3.8,2.17v.14h6.97v1.36Zm-14-3.28h-1.58v-3.42h1.36l-.32-5.3c1.04-.18,2.58-.63,3.51-.91l.72,.98c-.77,.29-1.74,.54-2.63,.7l.05,.72h2.45v1.07h-2.4l.05,.82h2.42v1.06c.5-.23,1.04-.52,1.5-.84-.38-.23-.79-.47-1.16-.64l.81-.7c.39,.2,.84,.43,1.25,.68,.32-.29,.59-.57,.81-.88l1.13,.36c-.29,.38-.61,.73-.98,1.09,.48,.32,.88,.63,1.18,.91l-.84,.77c-.29-.29-.7-.61-1.2-.95-.52,.41-1.09,.75-1.61,1.06h6.25c.02-.27,.05-.54,.09-.82h-2.38v-1.09h2.45l.07-.82h-2.44v-1.07h2.51l.04-.81h-2.63v-1.09h4.26c-.09,1.81-.25,4.1-.39,5.71h1.36v3.42h-1.65v-2.17h-12.05v2.17Zm1.34-3.42h3.06c-.18-.23-.59-.64-.84-.82h-2.26l.04,.82Zm5.93-3.29c-.27-.27-.66-.56-1.11-.84-.5,.38-1.04,.73-1.54,.98-.2-.18-.63-.59-.91-.77,.5-.21,1.02-.5,1.47-.82-.36-.21-.75-.43-1.13-.59l.81-.7c.38,.18,.81,.39,1.2,.63,.3-.25,.55-.54,.75-.79l1.13,.3c-.27,.36-.57,.72-.93,1.06,.43,.27,.81,.54,1.09,.79l-.82,.75Z"/><path d="M186.58,46.86v1.61h-15.9v-1.61h7.09v-4.12h-5.1v-1.59h5.1v-3.58h-3.98c-.55,1.07-1.15,2.02-1.77,2.78-.34-.29-1.07-.77-1.52-1,1.45-1.52,2.58-3.98,3.24-6.48l1.72,.39c-.27,.91-.59,1.83-.93,2.69h3.24v-3.33h1.72v3.33h6.23v1.63h-6.23v3.58h5.57v1.59h-5.57v4.12h7.09Z"/><path d="M202.15,32.46c-.09,.11-.18,.23-.29,.34,1.67,1.54,4.69,2.88,7.48,3.49-.34,.3-.81,.9-1.06,1.29-.43-.13-.9-.27-1.34-.43v4.64h-12.11v-4.51c-.45,.16-.88,.3-1.32,.43-.14-.32-.61-1-.9-1.29,3.24-.82,6.41-2.36,8.04-4.46l1.49,.5Zm4.73,4.67c-.97-.34-1.95-.77-2.87-1.27v.52h-6.2v-.43c-.82,.47-1.7,.84-2.6,1.18h11.66Zm-11.01,5.37h10.21v5.89h-1.7v-.48h-6.86v.55h-1.65v-5.96Zm2.44-4.17c.39,.61,.79,1.43,.91,1.97l-1.18,.39h2.11v-2.47h-3.89v2.47h1.72c-.13-.55-.47-1.38-.84-2.01l1.16-.36Zm-.79,5.32v.98h6.86v-.98h-6.86Zm6.86,3.13v-1h-6.86v1h6.86Zm-1.4-11.55c-.75-.47-1.41-.97-1.97-1.5-.59,.54-1.25,1.06-1.97,1.5h3.94Zm2.51,2.99h-3.98v2.47h2.01l-1.11-.34c.32-.57,.7-1.49,.9-2.1l1.4,.39c-.39,.77-.79,1.52-1.11,2.04h1.9v-2.47Z"/></g></g></g></g></svg>